# xmcd
#
# Track frame offsets: 
#        150
#        37831
#        73106
#        125727
#        153253
#        184529
#        207901
#        228902
#
# Disc length: 3986 seconds
#
# Revision: 1
# Processed by: cddbd v1.5.2PL0 Copyright (c) Steve Scherf et al.
# Submitted via: ExactAudioCopy v0.99pb5
#
DISCID=640f9008
DTITLE=Sun Ra Quartet - New Steps [Remaster]
DYEAR=1978
DGENRE=Jazz
TTITLE0=My favorite things
TTITLE1=Moon people
TTITLE2=Sun steps
TTITLE3=Exactly like you
TTITLE4=Friend and friendship
TTITLE5=Rome at twilight
TTITLE6=When there is no sun
TTITLE7=The horo
EXTD=YEAR: 1978
EXTT0=
EXTT1=
EXTT2=
EXTT3=
EXTT4=
EXTT5=
EXTT6=
EXTT7=
PLAYORDER=
